#!OML:ASF H:\LiuWeirdWalks\Patient Classification 1\Patient 1\Session 1\male.ASF
:FULLY-SPECIFIED
:DEGREES
591
root 0.538132 17.8856 -16.4068 3.51596 2.71902 5.07702
lowerback 12.8052 -0.949907 -5.16379
upperback 1.63314 -1.95132 0.366093
thorax -5.27253 -0.851363 3.63364
lowerneck -17.5778 1.16547 8.17693
upperneck 15.1082 0.984822 -8.04682
head 7.61979 0.164577 -3.90812
rclavicle 5.46658e-015 3.18055e-015
rhumerus -20.9915 -25.0488 -14.2004
rradius 34.2874
rwrist -2.85295
rhand -20.0884 -3.10312
rfingers 7.12502
rthumb 6.25448 -32.9908
lclavicle 5.46658e-015 3.18055e-015
lhumerus -26.8336 29.1522 35.9926
lradius 34.9491
lwrist 9.88572
lhand -20.5034 -1.53863
lfingers 7.12502
lthumb 5.85378 28.3605
rfemur -28.2099 -2.99691 9.08555
rtibia 31.6105
rfoot -3.03796 -15.7657
rtoes -5.66236
lfemur 4.48679 0.578 -19.7788
ltibia 26.7242
lfoot -4.47475 13.2321
ltoes -20.138
592
root 0.480767 17.9049 -16.3365 3.55018 2.68164 4.93637
lowerback 12.7347 -0.989391 -5.18069
upperback 1.63673 -2.00655 0.284497
thorax -5.22664 -0.880403 3.56353
lowerneck -17.6819 1.2219 8.27402
upperneck 15.2289 0.990465 -7.81587
head 7.67758 0.194079 -3.84873
rclavicle 9.74045e-015 8.74653e-015
rhumerus -20.9483 -24.9842 -14.1092
rradius 34.5379
rwrist -2.87692
rhand -20.1152 -3.14069
rfingers 7.12502
rthumb 6.22863 -33.0291
lclavicle 9.74045e-015 8.74653e-015
lhumerus -26.9326 29.2302 36.1964
lradius 34.8943
lwrist 9.74954
lhand -20.5797 -1.37765
lfingers 7.12502
lthumb 5.78016 28.5235
rfemur -27.9772 -3.04769 9.47572
rtibia 31.5791
rfoot -3.53111 -15.6401
rtoes -5.77246
lfemur 4.5356 0.5065 -19.4131
ltibia 26.8411
lfoot -3.79457 13.0115
ltoes -20.478
593
root 0.421989 17.9241 -16.2667 3.59058 2.67606 4.77439
lowerback 12.6408 -1.04263 -5.19346
upperback 1.65294 -2.07763 0.201266
thorax -5.15329 -0.918424 3.4908
lowerneck -17.7593 1.28849 8.40279
upperneck 15.2782 1.00484 -7.61098
head 7.70841 0.227505 -3.80059
rclavicle 2.37548e-014 -9.54166e-015
rhumerus -20.8862 -24.9806 -13.9526
rradius 34.763
rwrist -2.88473
rhand -20.1267 -3.17054
rfingers 7.12502
rthumb 6.21752 -33.0593
lclavicle 2.37548e-014 -9.54166e-015
lhumerus -27.009 29.3384 36.3883
lradius 34.8213
lwrist 9.65534
lhand -20.615 -1.29951
lfingers 7.12502
lthumb 5.74608 28.6026
rfemur -27.7359 -3.11171 9.88668
rtibia 31.5396
rfoot -4.04661 -15.5208
rtoes -5.92271
lfemur 4.57885 0.433675 -19.01
ltibia 26.9377
lfoot -3.11272 12.768
ltoes -20.7889
594
root 0.361933 17.9428 -16.1966 3.62708 2.70059 4.60188
lowerback 12.5451 -1.10479 -5.21887
upperback 1.66589 -2.16176 0.123163
thorax -5.08062 -0.962479 3.43257
lowerneck -17.7637 1.35026 8.52359
upperneck 15.251 1.01802 -7.41093
head 7.70125 0.260283 -3.75069
rclavicle 1.43622e-014 1.21259e-014
rhumerus -20.8233 -24.9891 -13.7046
rradius 34.9714
rwrist -2.8623
rhand -20.1183 -3.18958
rfingers 7.12502
rthumb 6.22564 -33.0781
lclavicle 1.43622e-014 1.21259e-014
lhumerus -27.0914 29.4458 36.5736
lradius 34.7316
lwrist 9.60248
lhand -20.6288 -1.29025
lfingers 7.12502
lthumb 5.73277 28.6122
rfemur -27.4762 -3.18408 10.3044
rtibia 31.4998
rfoot -4.59731 -15.4162
rtoes -6.11064
lfemur 4.63025 0.364096 -18.5797
ltibia 27.0158
lfoot -2.43756 12.4993
ltoes -21.0694
595
root 0.3005 17.9609 -16.1264 3.6638 2.77465 4.42489
lowerback 12.4405 -1.18468 -5.25322
upperback 1.67273 -2.27019 0.0428683
thorax -5.00707 -1.01824 3.38053
lowerneck -17.6994 1.412 8.65642
upperneck 15.154 1.03238 -7.21691
head 7.65941 0.29425 -3.70287
rclavicle -2.89232e-014 1.92821e-014
rhumerus -20.7585 -25.0275 -13.3786
rradius 35.155
rwrist -2.82703
rhand -20.0905 -3.16346
rfingers 7.12502
rthumb 6.25245 -33.0512
lclavicle -2.89232e-014 1.92821e-014
lhumerus -27.1715 29.5434 36.7398
lradius 34.6158
lwrist 9.55291
lhand -20.6007 -1.34429
lfingers 7.12502
lthumb 5.75987 28.5574
rfemur -27.2024 -3.27457 10.7212
rtibia 31.4675
rfoot -5.18846 -15.3365
rtoes -6.31421
lfemur 4.68368 0.279024 -18.1266
ltibia 27.0715
lfoot -1.78296 12.1957
ltoes -21.4349
